<?xml version="1.0" encoding="UTF-8" standalone="no"?>
<!-- Created with Inkscape (http://www.inkscape.org/) -->
<svg
   xmlns:dc="http://purl.org/dc/elements/1.1/"
   xmlns:cc="http://creativecommons.org/ns#"
   xmlns:rdf="http://www.w3.org/1999/02/22-rdf-syntax-ns#"
   xmlns:svg="http://www.w3.org/2000/svg"
   xmlns="http://www.w3.org/2000/svg"
   xmlns:sodipodi="http://inkscape.sourceforge.net/DTD/sodipodi-0.dtd"
   xmlns:inkscape="http://www.inkscape.org/namespaces/inkscape"
   width="640"
   height="480"
   id="svg2"
   sodipodi:version="0.32"
   inkscape:version="0.43"
   version="1.0"
   sodipodi:docbase="D:\Processing\my308"
   sodipodi:docname="blank_malaysia_map.svg">
  <defs
     id="defs4">
    <inkscape:perspective
       sodipodi:type="inkscape:persp3d"
       inkscape:vp_x="0 : 526.18109 : 1"
       inkscape:vp_y="0 : 1000 : 0"
       inkscape:vp_z="744.09448 : 526.18109 : 1"
       inkscape:persp3d-origin="372.04724 : 350.78739 : 1"
       id="perspective2464" />
  </defs>
  <sodipodi:namedview
     id="base"
     pagecolor="#ffffff"
     bordercolor="#666666"
     borderopacity="1.0"
     inkscape:pageopacity="0.0"
     inkscape:pageshadow="2"
     inkscape:zoom="1.1420137"
     inkscape:cx="62.945852"
     inkscape:cy="315.05995"
     inkscape:document-units="px"
     inkscape:current-layer="layer2"
     inkscape:window-width="1024"
     inkscape:window-height="712"
     inkscape:window-x="-4"
     inkscape:window-y="-4" />
  <metadata
     id="metadata7">
    <rdf:RDF>
      <cc:Work
         rdf:about="">
        <dc:format>image/svg+xml</dc:format>
        <dc:type
           rdf:resource="http://purl.org/dc/dcmitype/StillImage" />
      </cc:Work>
    </rdf:RDF>
  </metadata>
  <g
     inkscape:groupmode="layer"
     id="layer2"
     inkscape:label="default">
    <path
       style="fill:#c8c8c8;fill-opacity:1;fill-rule:evenodd;stroke:none;stroke-width:1px;stroke-linecap:butt;stroke-linejoin:miter;stroke-opacity:1"
       d="M 46.612937,82.669056 C 49.629917,80.058776 54.151607,74.381536 57.920487,70.237566 C 56.562637,69.926216 55.287267,69.540926 54.285917,68.909926 C 54.285917,68.909926 53.612847,63.478696 52.132097,63.237316 C 50.651347,62.995916 45.541077,62.707376 44.862957,63.599386 C 44.027817,64.697946 44.042207,72.355576 43.516817,72.772146 C 42.649367,73.459936 42.036077,73.858386 42.036077,73.858386 C 42.036077,73.858386 42.170687,78.203376 42.439907,78.444766 C 42.709137,78.686156 44.272137,81.067076 44.459117,81.341426 C 44.794317,81.833236 43.651427,82.910446 43.651427,82.910446 L 45.939867,83.513916 L 46.612937,82.669056 z "
       id="PLS"
       sodipodi:nodetypes="cccssscssccc" />
    <g
       id="PNG"
       transform="matrix(0.753837,0,0,0.675887,-11.99227,-149.5214)">
      <path
         id="path8677"
         d="M 87.251926,386.29285 C 87.251926,386.29285 86.999388,394.12153 87.125657,395.38422 C 87.251926,396.64691 90.282384,401.31887 89.777308,401.95021 C 89.272231,402.58156 89.272231,408.76874 88.009541,409.14755 C 86.74685,409.52636 86.368043,411.42039 86.999388,411.16785 C 87.630733,410.91532 94.575532,410.78905 95.459416,408.89501 C 96.343299,407.00097 96.090761,393.23765 96.090761,393.23765 C 96.090761,393.23765 96.848375,388.31315 96.595837,387.303 C 96.343299,386.29285 94.070456,385.03016 94.070456,385.03016 C 94.070456,385.03016 90.029846,384.39881 89.272231,384.65135 C 88.514617,384.90389 87.251926,385.53523 87.251926,386.29285 z "
         style="fill:#c8c8c8;fill-opacity:1;fill-rule:evenodd;stroke:none;stroke-width:1px;stroke-linecap:butt;stroke-linejoin:miter;stroke-opacity:1" />
      <path
         id="path8679"
         d="M 76.266517,389.19704 C 81.443549,389.19704 82.832509,390.08092 82.832509,390.08092 C 82.832509,390.08092 84.474007,393.99526 84.347738,394.87914 C 84.221469,395.76303 86.115505,398.54095 84.726545,399.42483 C 83.337585,400.30871 78.286822,402.83409 77.402939,402.20275 C 76.519055,401.5714 76.266517,398.28841 76.266517,398.28841 C 76.266517,398.28841 74.877558,392.10122 76.266517,389.19704 z "
         style="fill:#c8c8c8;fill-opacity:1;fill-rule:evenodd;stroke:none;stroke-width:1px;stroke-linecap:butt;stroke-linejoin:miter;stroke-opacity:1" />
    </g>
    <g
       id="KDH"
       transform="matrix(0.753837,0,0,0.675887,-11.54021,-149.2118)">
      <path
         sodipodi:nodetypes="cccsssscscssssccssccccccccccccc"
         id="path3437"
         d="M 77.5,344.86218 L 93.75,324.86218 L 95.357143,324.68361 C 95.357143,324.68361 103.21429,328.25504 104.46429,328.61218 C 105.71429,328.96932 107.5,325.75504 109.10714,325.3979 C 110.71429,325.04075 112.32143,328.61218 112.32143,328.25504 C 112.32143,327.8979 115.71429,330.21932 116.07143,330.75504 C 116.42857,331.29075 117.5,340.3979 117.5,340.3979 C 117.5,340.3979 123.39286,340.21932 123.57143,338.96932 C 123.75,337.71932 126.96429,340.3979 126.96429,340.3979 C 126.96429,340.3979 130.71429,340.21932 131.25,340.3979 C 131.78571,340.57647 134.28571,344.32647 132.32143,347.71932 C 130.35714,351.11218 134.46429,347.8979 132.67857,354.1479 C 130.89286,360.3979 138.34854,359.42247 129.64286,364.1479 C 124.60568,366.88207 128.19425,364.60191 126.17852,371.06571 L 124.58932,374.91661 C 124.58932,374.91661 122.66975,380.04075 121.41975,380.57647 C 121.05273,380.73376 122.13404,383.07647 122.49118,384.68361 C 122.68487,385.55521 116.96429,393.1309 116.96429,393.1309 C 112.75063,397.15345 109.75545,398.73906 106.42857,400.98804 L 103.03571,409.02376 C 101.60714,409.87961 100.17857,410.3055 98.75,409.73804 C 97.743793,409.54807 96.958644,408.916 96.428572,407.77376 L 97.142857,403.30947 C 97.083333,398.30947 96.509478,394.85246 96.964286,388.30947 L 97.321429,385.45233 C 97.12713,384.76981 97.011383,384.09851 93.571429,382.95232 C 90.988576,382.35769 88.402588,381.75913 87.678572,383.48804 C 85.466203,382.55064 84.555163,379.66125 83.214286,377.41661 L 85,372.23804 C 85,372.23804 87.5,359.1479 77.5,344.86218 z "
         style="fill:#c8c8c8;fill-opacity:1;fill-rule:evenodd;stroke:none;stroke-width:1px;stroke-linecap:butt;stroke-linejoin:miter;stroke-opacity:1" />
      <path
         id="path8683"
         d="M 47.5,331.29075 C 46.071429,333.07647 45.714286,330.57647 46.071429,333.43361 C 46.428572,336.29075 48.214286,341.6479 48.214286,341.6479 L 50,342.36218 L 53.928572,340.93361 L 58.571429,340.57647 L 60,337.71932 L 61.071429,334.50504 L 59.642857,332.36218 C 59.642857,332.36218 57.142857,329.1479 55,329.1479 C 52.857143,329.1479 52.142857,330.21932 52.142857,330.21932 L 47.5,331.29075 z "
         style="fill:#c8c8c8;fill-opacity:1;fill-rule:evenodd;stroke:none;stroke-width:1px;stroke-linecap:butt;stroke-linejoin:miter;stroke-opacity:1" />
    </g>
    <path
       style="fill:#c8c8c8;fill-opacity:1;fill-rule:evenodd;stroke:none;stroke-width:1px;stroke-linecap:butt;stroke-linejoin:miter;stroke-opacity:1"
       d="M 128.7273,240.53691 C 130.79138,241.42451 132.85544,243.15759 134.91951,244.64052 C 139.08155,245.60873 142.21859,246.85325 149.18857,249.70966 L 151.61161,246.08884 L 152.4193,245.36468 L 151.34239,242.9508 C 151.58217,240.29553 152.88203,237.64026 153.76543,234.98499 C 149.76127,233.50411 147.63518,232.44419 146.4963,231.60555 L 142.18865,232.32972 L 137.07334,231.60555 L 132.7657,232.08833 L 128.7273,233.77804 C 128.7273,233.77804 125.95262,236.13777 126.30425,237.39886 C 126.8427,239.32997 128.99652,241.01969 128.7273,240.53691 z "
       id="MLK"
       sodipodi:nodetypes="ccccccccccccsc" />
    <path
       style="fill:#c8c8c8;fill-opacity:1;fill-rule:evenodd;stroke:none;stroke-width:1px;stroke-linecap:butt;stroke-linejoin:miter;stroke-opacity:1"
       d="M 162.35366,258.42642 C 164.64457,259.0956 164.57531,261.72836 166.12283,261.28668 L 167.76526,262.98601 C 168.55383,263.63145 169.71515,263.71987 171.26521,263.2274 L 179.99201,268.01124 C 179.99201,268.01124 188.49576,270.46905 188.765,271.67599 C 189.03422,272.88293 191.18804,281.09013 194.14954,280.84874 C 197.11104,280.60735 201.95434,274.08987 207.87734,273.6071 C 213.80034,273.12432 212.65811,274.00202 212.65811,274.00202 L 215.74745,274.74584 L 216.69931,270.25443 C 217.57646,269.93698 218.54382,268.40648 219.18489,271.26391 L 217.88774,272.64154 L 219.18769,275.05542 C 219.55997,276.57785 220.6143,277.08109 221.73579,277.48395 C 223.39574,279.9196 225.81416,277.93492 227.92801,277.72534 C 229.49295,275.59141 230.67479,272.80249 229.95678,269.98627 C 228.40877,264.86175 225.75027,260.98181 223.2261,256.95131 C 218.19674,245.23094 218.22699,245.39912 220.53382,250.91661 C 219.39458,248.50273 218.08036,246.08884 215.68773,243.67496 C 214.49504,238.58934 211.91534,236.19815 209.22627,234.01944 C 209.59357,232.38397 210.4694,231.11326 208.41859,227.74334 C 206.57667,227.99939 207.21926,226.70771 206.05645,226.1519 C 201.49761,224.04238 202.01004,225.16417 200.53215,224.53459 C 199.26301,225.05841 198.4267,226.87579 197.91872,229.67445 C 199.45284,231.08242 199.78647,231.41404 200.35811,231.95906 C 200.05319,232.48538 199.38411,233.28261 198.15537,232.98064 C 190.97011,227.89725 191.324,229.05347 187.90832,227.08988 C 185.69473,227.44795 185.10857,227.32372 178.72472,230.10117 C 177.22278,229.34947 172.79157,227.36246 172.48194,227.22955 C 169.83244,226.09221 167.66291,223.16119 165.867,221.47888 C 163.41925,219.18599 161.58388,218.26123 159.41921,218.5706 C 159.02085,220.06688 157.68964,221.29623 157.15509,222.60027 C 156.04126,225.31746 155.61869,228.12992 154.12984,230.01583 C 154.37112,231.8399 153.62331,232.57313 153.38468,233.53666 L 155.28561,234.68503 L 152.67219,242.48267 L 153.70291,245.42074 L 150.04244,250.5631 L 152.42209,253.02091 L 154.68464,254.11071 C 156.3801,256.43141 157.28377,259.56343 162.35366,258.42642 z "
       id="JHR"
       sodipodi:nodetypes="cccccssscccccccccccccccccccccsscsccccccccc" />
    <path
       style="fill:#c8c8c8;fill-opacity:1;fill-rule:evenodd;stroke:none;stroke-width:0.95961827px;stroke-linecap:butt;stroke-linejoin:miter;stroke-opacity:1"
       d="M 124.66961,236.94518 C 122.28762,236.9177 121.1209,237.15442 120.53364,236.48328 C 120.38002,235.3379 119.72636,233.74419 118.49595,231.63337 L 118.09716,229.75967 C 116.93576,229.30105 115.91989,228.97291 115.11717,228.83587 L 115.24674,227.33471 L 116.54238,224.2169 L 117.1902,221.33005 L 116.80151,217.28845 L 123.66845,215.67181 C 124.01703,213.51904 124.79415,212.13471 125.48235,210.59094 L 125.48235,210.01357 L 125.88113,208.37604 C 125.83458,206.68938 125.78803,205.00272 125.74148,203.31605 L 126.64843,202.27678 C 129.58209,202.0354 130.01224,203.14078 131.31276,203.77795 L 132.73796,204.35532 L 134.68144,204.58627 C 135.9339,204.63878 137.18635,205.03097 138.43881,205.39459 C 140.38229,205.11435 142.32575,206.31719 144.26923,206.89576 C 146.39043,208.53653 149.7022,210.39078 150.2292,211.74568 C 153.98602,214.12734 155.47797,214.66298 157.44443,216.08151 L 159.16412,217.38826 L 158.00309,218.44319 C 157.12502,219.48142 156.00833,220.19875 155.80049,222.13837 L 154.24571,226.87281 L 152.95007,229.41325 L 152.17267,232.87747 L 149.71095,232.41558 L 146.73095,230.56799 L 142.19619,231.37631 L 137.4023,230.79894 L 133.12666,231.26084 C 131.02624,231.68994 129.74846,232.48783 128.33278,233.2239 C 126.56948,234.45511 125.00975,236.03296 124.66961,236.94518 z "
       id="NSN"
       sodipodi:nodetypes="ccccccccccccccccccccccccccccccccccc" />
    <path
       style="fill:#c8c8c8;fill-opacity:1;fill-rule:evenodd;stroke:none;stroke-width:1px;stroke-linecap:butt;stroke-linejoin:miter;stroke-opacity:1"
       d="M 78.53125 178.875 L 74.46875 179.59375 L 73.8125 180.3125 L 73.28125 180.90625 L 74.34375 182.25 L 78.125 184.65625 L 83.625 189 L 84.3125 191.78125 L 86.71875 194.4375 C 86.718753 194.4375 94.064633 201.3468 94.40625 201.78125 C 94.406185 201.78476 94.406201 201.80951 94.40625 201.8125 C 94.527511 202.22479 96.406417 206.99578 96.4375 208.09375 C 96.43752 208.11037 96.438456 208.14157 96.4375 208.15625 C 96.431732 208.16175 96.412087 208.18214 96.40625 208.1875 C 96.406371 208.19057 96.406209 208.21602 96.40625 208.21875 C 96.31453 209.09041 97.5 211.21875 97.5 211.21875 C 97.499999 211.21874 96.95343 213.5993 96.15625 214.34375 C 95.348567 215.06791 93.875 215.90625 93.875 215.90625 L 93.875 218.6875 L 96.03125 220.03125 L 99.125 220.875 C 99.125003 220.875 103.81491 223.76932 104.21875 226.0625 C 104.21875 226.0625 110.02886 228.34805 111.375 228.46875 C 112.40564 228.56115 113.35841 228.36733 113.6875 228.21875 C 113.69028 228.21591 113.71558 228.19104 113.71875 228.1875 C 113.72156 228.18759 113.7467 228.18714 113.75 228.1875 C 113.75286 228.18472 113.7782 228.15948 113.78125 228.15625 C 113.78124 228.15339 113.78142 228.1286 113.78125 228.125 C 113.78135 228.12212 113.78103 228.09741 113.78125 228.09375 L 115.65625 224.375 L 116.21875 221.59375 L 115.8125 217.46875 L 115.8125 216.75 L 123.21875 214.9375 L 124.28125 211.09375 L 124.96875 208.6875 L 124.96875 202.40625 L 126.03125 201.1875 L 121.46875 200.84375 L 118.375 197.21875 L 117.28125 195.875 L 118.21875 194.1875 L 117.28125 192.03125 L 118.625 188.53125 C 118.625 188.53124 118.35816 187.07763 117.28125 185.75 C 116.20435 184.42236 114.71875 183.09375 114.71875 183.09375 L 113.53125 182.46875 L 111.09375 182.71875 L 108.28125 185.03125 L 107.0625 185.375 L 104.625 184.53125 L 99.90625 181.625 L 98.4375 181.875 L 98.15625 184.53125 L 97.5 185.375 L 95.875 185.375 L 92.375 184.78125 L 86.875 182.96875 L 85.53125 182.375 L 83.375 182.375 L 81.21875 180.78125 L 79.71875 179.34375 L 78.53125 178.875 z M 114.71875 198.6875 C 115.04014 199.07852 114.97741 199.45294 115.4375 200.15625 C 115.6107 200.42102 115.85907 201.17679 116 201.40625 C 116.62069 202.31179 116.73821 202.80204 116.9375 203.375 C 117.46407 208.92206 114.82711 207.76622 113.25 206.875 C 111.81053 203.95631 111.64705 202.65752 111.40625 200.9375 C 112.11351 199.18675 113.86901 199.01346 114.71875 198.6875 z M 115.9375 209 L 118.5625 210.28125 L 120.59375 212.78125 L 119.65625 213.53125 L 116.71875 214.78125 L 114.25 213.90625 L 114.25 210.28125 L 115.9375 209 z "
       id="SGR" />
    <path
       style="fill:#c8c8c8;fill-opacity:1;fill-rule:evenodd;stroke:none;stroke-width:1px;stroke-linecap:butt;stroke-linejoin:miter;stroke-opacity:1"
       d="M 73.131837,179.34502 L 69.901107,177.89669 C 69.901107,177.89669 68.554967,173.06893 68.958807,172.58615 C 69.362657,172.10338 69.631877,171.98268 69.631877,171.98268 L 71.112627,171.25852 L 70.708787,168.72394 C 70.708787,168.72394 67.343447,166.67214 66.535767,167.15492 C 65.728077,167.63769 63.708877,164.49965 63.708877,164.49965 L 62.093507,160.87882 C 62.093507,160.87882 64.651177,153.87857 64.112717,151.94746 C 63.574267,150.01635 62.766577,148.93011 62.766577,148.93011 L 62.766577,147.48178 C 62.766577,147.48178 64.920397,140.11945 57.785867,137.10209 L 55.362827,135.17099 L 53.612847,129.49836 L 55.497437,129.25698 L 60.612757,128.29143 L 62.766577,129.13628 L 65.862697,129.13628 L 67.208837,127.80865 C 67.257147,126.19939 67.049417,124.59013 69.228037,122.98088 C 71.651077,121.41186 74.074127,119.84284 76.497177,118.27382 C 78.920217,116.34271 80.535587,113.44605 82.554797,111.03217 L 81.612497,107.89413 L 83.631707,104.51469 L 84.843227,101.37664 L 86.727817,103.18706 L 88.612407,104.63539 C 88.612407,104.63539 91.170067,104.2733 91.573917,103.66983 C 91.977757,103.06636 93.054667,99.324846 93.054667,99.324846 C 93.054667,99.324846 97.766147,97.514436 97.900757,98.238596 L 101.40072,95.824716 C 103.06438,97.050346 105.19206,95.363786 107.1891,94.497076 L 109.34292,94.738466 C 111.85262,95.384016 113.15285,97.396206 113.51595,99.324836 L 111.76597,100.65248 C 111.76597,100.65248 111.49674,101.01456 112.16981,101.73872 C 112.84288,102.46289 113.1121,105.35954 113.1121,105.35954 C 113.32773,108.29644 113.11734,109.30222 112.97749,112.23911 L 114.9967,113.08397 C 116.01013,113.2657 115.36749,117.56787 114.32363,117.67034 C 113.94515,117.7075 110.68906,117.42896 110.68906,117.42896 L 108.53524,117.91173 L 107.1891,119.48075 L 106.78527,121.04978 L 105.30451,121.29116 L 103.82376,125.27407 L 103.55453,130.10184 L 101.80455,132.15363 L 101.66994,134.32613 L 102.61224,136.01585 L 101.40072,137.70556 L 100.72765,139.75736 L 97.900757,143.61957 C 97.900757,143.61957 97.093067,146.15415 98.169977,148.44734 L 99.516117,149.41289 L 99.112277,151.46469 L 98.439217,153.87857 C 97.260407,154.90456 98.561217,155.53928 100.32381,156.53384 C 100.81739,156.53384 101.31097,156.53384 101.80455,156.53384 C 102.2084,157.86147 102.61224,159.18911 103.01608,160.51674 C 103.41992,161.03975 103.82377,161.56276 104.2276,162.08577 C 104.31735,162.60878 104.40709,163.13178 104.49683,163.65479 C 104.94554,164.29849 105.39426,164.94219 105.84297,165.58589 C 106.29168,166.1089 106.74039,166.63191 107.1891,167.15492 C 107.59294,167.43654 107.99679,167.71816 108.40063,167.99978 C 108.35576,168.76417 108.31088,169.52857 108.26601,170.29296 C 108.26601,171.45967 108.26601,172.62638 108.26601,173.79309 C 108.58011,175.12072 108.89421,176.44836 109.20831,177.77599 L 110.28522,182.24168 L 107.05449,184.29348 C 107.05449,184.29348 99.919957,181.39682 100.1892,180.55196 L 96.958457,181.15543 C 97.512807,182.99825 96.902917,183.44927 96.420007,184.05209 C 96.420007,184.05209 94.131567,183.69 94.131567,183.20723 L 92.785437,183.44862 L 90.496997,182.96584 L 87.670117,182.12098 L 86.862427,181.15543 L 84.573997,181.15543 L 83.093247,181.15543 L 81.747117,179.10363 L 81.074047,178.50016 L 78.920227,178.01739 L 75.016427,178.62085 L 73.131837,179.34502 z "
       id="PRK"
       sodipodi:nodetypes="ccscccsccsccccccccccccccccccscccccccscccsccccccccccccccccccccccccccccccccccccccccccccc" />
    <path
       style="fill:#c8c8c8;fill-opacity:1;fill-rule:evenodd;stroke:none;stroke-width:1px;stroke-linecap:butt;stroke-linejoin:miter;stroke-opacity:1"
       d="M 113.24672,100.89387 L 115.80438,99.083456 L 118.36204,100.1697 C 119.71804,99.204146 122.7425,98.238596 122.13123,97.273046 C 123.34827,95.286646 122.28052,93.781936 122.53506,92.083196 L 129.13113,87.134736 L 128.99652,84.238086 L 130.20804,83.272526 L 131.41957,81.824206 L 134.24645,82.306976 L 140.16945,82.910446 L 142.32327,84.600166 L 145.41939,87.134736 C 146.22608,87.031416 150.15849,94.648716 149.32318,95.462636 L 152.15006,97.997206 L 149.99625,99.204146 C 148.58899,100.12324 147.07911,101.25702 144.6117,104.39399 L 144.88093,108.13551 L 145.82323,109.94592 L 144.6117,112.60119 C 144.6117,112.60119 146.90013,117.67034 146.09245,122.86019 C 146.09245,122.86019 146.63091,125.39476 150.26548,127.56726 C 150.26548,127.56726 150.26548,133.48127 150.80393,134.44682 C 151.34239,135.41237 155.91925,138.30903 155.91925,138.30903 L 156.59232,141.085 L 154.30389,143.13679 L 151.61161,143.13679 L 149.4578,143.25749 C 149.4578,143.25749 142.45788,140.11945 142.18865,145.30929 L 136.53488,145.55068 L 132.49647,140.84361 C 130.35288,141.39491 127.92007,142.85375 126.43886,141.32638 L 125.22734,141.56777 L 124.28504,142.77471 L 124.28504,145.30929 L 123.20813,144.82651 L 121.18893,142.77471 L 118.90049,140.84361 L 117.68897,141.80916 L 116.61206,145.91276 L 114.32363,147.96456 L 110.68906,149.89566 L 106.91988,148.08525 L 103.82376,149.53358 L 101.2661,148.20594 L 99.381507,147.96456 L 98.439217,145.91276 L 98.439217,144.46443 L 101.2661,140.9643 L 102.07379,138.67111 L 103.82376,137.10209 L 104.09299,135.29168 L 103.1507,133.96404 L 103.55453,132.51572 L 106.24681,122.25672 L 110.28522,118.39451 L 114.0544,118.39451 L 115.53515,118.27382 L 117.15052,114.29091 L 117.0159,112.35981 L 114.45825,111.03217 C 114.45825,111.03217 114.72747,107.04927 114.32363,106.56649 L 114.18901,104.51469 L 114.59286,102.46289 L 113.24672,100.89387 z "
       id="KTN"
       sodipodi:nodetypes="ccccccccccccccccccccccscccccccccccccccccccccccccccccccccccccccccc" />
    <path
       style="fill:#c8c8c8;fill-opacity:1;fill-rule:evenodd;stroke:none;stroke-width:1px;stroke-linecap:butt;stroke-linejoin:miter;stroke-opacity:1"
       d="M 153.22698,98.600676 L 156.59232,100.53179 L 159.41921,103.66983 L 164.39992,107.16996 L 170.32292,109.94592 L 175.30362,113.80814 C 177.07292,115.28496 178.60385,117.40295 180.0151,119.84284 C 181.9123,123.16123 183.26917,124.78407 185.80349,130.10184 C 188.10094,133.30826 191.01682,136.37607 191.99572,139.87805 C 193.16276,146.83808 193.21904,153.7981 193.34186,160.75813 L 191.59188,164.49965 L 186.07272,164.37895 C 185.0107,165.036 184.18139,165.9017 184.18813,167.517 L 184.32274,172.82754 C 184.32274,172.82754 184.32274,174.87934 183.78429,174.87934 C 183.24583,174.87934 180.0151,170.29296 180.0151,170.29296 C 178.71309,170.73073 175.01097,167.54351 174.22671,167.517 C 169.58861,167.36019 172.52109,168.39483 168.43833,168.12046 L 167.76526,166.31006 C 167.10673,166.45767 167.46061,159.28757 172.74597,156.29245 L 170.86138,153.1544 L 166.95757,153.2751 L 166.1499,152.30954 L 166.28451,144.9472 L 164.53453,143.74027 L 162.51533,143.37819 L 160.63073,143.37819 L 158.07307,141.68847 L 157.66923,139.39528 L 156.59232,136.8607 L 152.28468,133.84335 C 152.28468,133.84335 151.20778,130.34322 151.20778,127.20517 L 147.97704,123.82574 L 147.43858,120.56701 L 147.16936,115.73924 L 145.95784,112.84259 L 147.30398,109.82523 L 145.95784,106.92857 L 146.09246,104.63539 C 146.09246,104.63539 150.40009,98.721376 153.22698,98.600676 z "
       id="TRG"
       sodipodi:nodetypes="ccccccccccccccscsccccccccccccccccccccccc" />
    <path
       style="fill:#c8c8c8;fill-opacity:1;fill-rule:evenodd;stroke:none;stroke-width:1px;stroke-linecap:butt;stroke-linejoin:miter;stroke-opacity:1"
       d="M 199.58293,223.08115 L 194.44287,218.64329 L 192.34877,214.20542 L 192.53915,210.62099 L 192.72952,205.159 L 192.72952,202.94007 C 192.72952,202.94007 191.77766,195.25915 193.87176,191.50403 L 188.35095,184.50585 L 188.16059,181.60417 L 188.92207,179.38523 L 189.30281,175.97149 L 191.39691,173.75255 L 191.39691,171.87499 L 191.01617,169.99744 L 190.25468,167.60782 L 191.39691,165.2182 L 186.44723,165.2182 L 185.49537,166.75438 L 185.11463,175.45943 L 183.59164,176.31286 L 181.87829,175.11806 L 179.59382,171.70431 L 177.11897,170.33881 L 174.26339,168.63194 L 171.97892,168.80263 L 169.88482,169.48538 L 167.40998,168.97332 L 166.26774,167.09575 L 166.26774,166.07163 L 166.83886,162.31652 C 166.83886,162.31652 168.93296,156.85452 171.21743,156.00109 L 169.69445,153.95284 L 166.45812,154.29421 L 164.36402,153.09941 L 164.36402,150.88047 L 164.74476,146.10123 L 163.98327,144.39435 L 160.3662,144.22367 L 158.65284,143.54092 L 157.12986,142.5168 L 155.03577,143.71161 L 153.51278,144.73573 L 151.79943,144.56504 L 150.6572,144.73573 L 145.51714,143.54092 L 143.99416,143.8823 L 143.80379,145.75986 L 141.70969,146.61329 L 138.28298,146.61329 L 135.80814,146.27191 L 132.95256,143.37023 L 132.00069,142.17543 L 128.00288,143.02885 L 125.52804,143.02886 L 125.52804,144.90642 L 124.76655,147.12535 L 123.43394,146.78398 L 121.14947,145.24779 L 119.62649,143.54092 C 119.62649,143.54092 118.67463,141.1513 118.67463,142.5168 C 118.67463,143.8823 118.67463,146.10123 118.67463,146.10123 L 116.00941,148.32016 L 113.72494,149.85635 L 110.86935,150.70978 L 108.39451,150.70978 L 106.30041,149.51498 L 103.6352,151.05116 L 100.96998,149.85635 L 100.01812,154.63559 L 102.11222,155.8304 L 103.25445,155.65971 L 103.06408,157.53727 L 105.91967,163.34064 L 107.44265,165.90095 L 109.53674,167.77851 L 109.53674,170.5095 L 109.34637,173.92324 L 110.67898,179.04386 L 111.63084,181.60417 L 114.29606,181.77485 L 116.19978,182.79898 L 118.67463,186.04204 L 120.00723,188.94372 L 118.86499,191.8454 L 119.24574,195.25915 L 119.62649,196.79533 L 121.33984,199.18495 L 123.24356,200.03838 L 126.86065,200.03838 L 128.574,201.40388 L 131.42958,202.25732 L 133.14292,203.45213 L 137.52149,203.96419 L 140.18671,204.13488 L 142.2808,204.81762 L 144.18453,205.159 L 146.469,206.69518 L 149.89571,209.59687 L 162.65066,217.96054 L 165.50626,219.66741 L 167.21961,220.69154 L 168.74259,222.39841 L 171.02705,224.95871 L 173.31153,226.4949 L 178.83233,228.71383 L 187.01835,225.98284 L 190.25468,226.15353 L 192.9199,228.03109 L 196.91772,230.93277 L 196.91772,230.25002 L 196.72734,227.8604 L 198.25033,225.81215 L 199.58293,223.08115 z "
       id="PHG"
       sodipodi:nodetypes="cccccccccccccccccccccccccccccccccccccccccccccccccccccccccccsccccccccccccccccccccccccccccccccccccccccccccccccccccc" />
    <path
       style="fill:#c8c8c8;fill-opacity:1;fill-rule:evenodd;stroke:none;stroke-width:1px;stroke-linecap:butt;stroke-linejoin:miter;stroke-opacity:1"
       d="M 443.45076,212.0338 L 442.11816,213.22861 L 440.4048,216.81305 L 441.92779,218.34923 L 443.45076,219.37335 L 446.11598,217.66648 L 447.82933,215.9596 L 447.06785,213.22861 L 445.73523,212.0338 L 443.45076,212.0338 z "
       id="LBN" />
    <g
       id="SBH"
       transform="translate(-3.588813e-6,3.205593e-6)">
      <path
         sodipodi:nodetypes="ccccccccccccccccccccscccccccccccccccccccccccccccccccccccccccccccccccccccccccccccccccccccccccccccccccccccccccccccccccccccccccccccccccccccccccccccccccccccccccccccccccccccccccccccccccccccccccccccccccc"
         id="path20951"
         d="M 453.92126,229.95596 L 461.9169,230.98008 L 463.43989,234.05246 L 463.82063,236.44207 L 463.82063,239.17307 L 460.39393,241.5627 L 459.63243,244.29369 L 459.63243,248.73156 L 460.01318,251.80393 L 464.20138,255.55905 L 464.58212,257.60729 L 463.43989,259.31417 L 463.05914,261.36241 L 465.72436,262.38654 L 468.38957,261.36241 L 470.67405,261.36241 L 471.81628,259.82623 L 473.91035,257.77798 L 474.10077,255.72973 L 478.6697,257.43661 C 478.6697,257.43661 478.47936,258.46073 479.24081,258.46073 C 480.00234,258.46073 481.71566,258.46073 481.71566,258.46073 L 486.47501,255.55905 L 492.37649,255.55905 L 494.28023,254.8763 L 499.22993,258.80211 L 503.03741,255.38836 L 506.08336,256.2418 L 508.93897,255.90042 L 512.55603,255.72973 L 517.12496,256.58317 L 521.50355,256.58317 L 524.93027,256.2418 L 531.02217,256.75386 L 533.11626,256.58317 L 536.35256,257.26592 L 540.5408,259.14348 L 542.44454,261.5331 L 548.34603,261.87447 L 550.05942,261.70379 L 551.01129,260.50898 L 551.20164,257.60729 L 551.39206,254.70561 L 553.48614,253.5108 L 556.91286,256.2418 L 553.8669,256.58317 L 551.96316,258.29004 L 553.10538,260.1676 L 557.29354,260.85035 L 560.3395,260.85035 L 564.71809,260.85035 L 564.52774,259.31417 L 563.19511,258.29004 L 567.00259,258.97279 L 569.47744,258.97279 L 575.379,257.94867 L 585.46873,256.2418 L 589.6569,255.21767 L 592.13174,255.21767 L 593.84514,254.19355 L 596.89109,250.7798 L 594.79701,247.19537 L 591.17987,246.34193 L 590.03766,244.29369 L 587.37247,242.7575 L 584.32652,241.73338 L 581.28049,240.36788 L 576.90198,233.88177 L 576.71156,232.68695 L 578.99606,230.98008 L 584.51686,228.76115 L 586.80136,231.49215 L 590.228,231.66283 L 593.27396,231.66283 L 596.31999,231.66283 L 598.22365,232.1749 L 600.50816,230.80939 L 610.97865,227.56634 L 622.40101,224.66466 L 624.4951,222.27504 L 625.0662,220.0561 L 624.87586,213.74067 L 622.97212,211.69242 L 621.82991,210.15624 L 614.78613,210.15624 L 609.45567,209.98555 L 607.74228,208.27868 L 603.36377,206.23043 L 600.31781,204.52356 L 596.31999,201.28051 L 594.03548,199.74432 L 588.70503,196.84263 L 584.7072,195.64783 L 579.94793,194.6237 L 575.56934,194.45301 L 574.42713,195.13576 L 573.85602,197.3547 L 572.90415,198.72019 L 570.23889,199.57363 L 568.1448,199.40295 L 566.05072,198.89088 L 565.86037,197.69607 L 569.09667,197.18401 L 571.19076,197.01332 L 572.90415,195.81851 L 572.90415,194.28233 L 571.95228,190.52721 L 569.28702,187.11346 L 567.5737,185.40659 L 564.3374,187.28415 L 562.624,188.82033 L 561.10102,188.99102 L 559.76839,189.3324 L 557.48396,189.67377 L 557.48396,191.55133 L 555.77057,191.89271 L 554.05725,191.89271 L 552.53427,191.03927 L 554.24759,188.64965 L 554.24759,187.11346 L 554.24759,184.89453 L 553.10538,182.84628 L 552.15351,181.48078 L 553.29572,180.11529 L 557.29354,179.09116 L 557.1032,169.87405 L 554.8187,168.16718 L 552.72461,167.31374 L 550.82087,166.11893 L 547.96534,162.36381 L 546.0616,162.70519 L 543.96752,165.60687 L 542.63488,164.58275 L 539.96969,162.70519 L 537.68519,162.70519 L 536.73332,161.169 L 536.73332,157.92594 L 535.59111,156.56044 L 534.63924,155.53632 L 535.40076,152.63464 L 535.21034,150.58639 L 534.25847,149.22089 L 531.78363,148.36746 L 529.11843,148.36746 L 526.45324,148.87952 L 525.31095,149.90365 L 523.59763,152.29326 L 524.35908,154.85357 L 523.9784,156.90182 L 522.265,158.60869 L 520.55168,161.68106 L 518.07683,162.70519 L 515.98275,163.89999 L 515.41157,163.21725 L 516.55386,159.63282 L 517.88641,157.07251 L 516.36344,155.02426 L 517.12496,151.09845 L 515.22122,148.36746 L 513.69825,148.19677 L 511.60416,148.70883 L 509.12932,150.58639 L 509.12932,152.12258 L 507.41592,153.1467 C 507.41592,153.1467 505.7026,159.63282 506.08336,160.65694 C 506.08336,160.65694 500.94332,164.75343 500.56256,165.77755 C 500.56256,165.77755 503.79886,167.65511 492.75726,173.45848 L 490.85352,178.5791 L 488.37867,178.23773 L 486.28459,178.5791 L 485.33272,180.96872 L 482.85787,182.6756 L 482.47718,184.72384 L 482.85787,185.74796 L 482.66753,187.45484 L 480.57344,192.57545 L 479.43115,195.81852 L 477.52749,196.50126 L 474.86222,197.69608 L 474.29112,199.74432 L 472.95851,204.18218 L 470.67405,206.05974 L 465.91473,206.05974 L 458.68057,206.05974 L 455.44424,207.42525 L 452.96939,209.81487 L 451.06567,212.71655 L 450.11381,215.44754 L 450.11381,216.81305 L 452.20791,218.00785 L 455.06349,220.22679 L 457.15759,221.25091 L 458.29983,222.7871 L 457.53834,224.32328 L 456.77684,226.7129 L 453.54051,228.41978 L 453.92126,229.95596 z "
         style="fill:#c8c8c8;fill-opacity:1;fill-rule:evenodd;stroke:none;stroke-width:1px;stroke-linecap:butt;stroke-linejoin:miter;stroke-opacity:1" />
      <path
         id="path20955"
         d="M 525.12709,137.22023 L 525.66556,143.9791 L 528.08862,144.34118 L 531.1847,142.89286 L 534.14623,141.32383 L 535.76155,140.96175 L 536.03082,137.9444 L 535.76155,134.68566 L 534.14623,133.8408 L 532.53083,133.59941 L 528.08862,135.28913 L 525.12709,137.22023 z "
         style="fill:#c8c8c8;fill-opacity:1;fill-rule:evenodd;stroke:none;stroke-width:1px;stroke-linecap:butt;stroke-linejoin:miter;stroke-opacity:1" />
    </g>
    <path
       style="fill:#c8c8c8;fill-opacity:1;fill-rule:evenodd;stroke:none;stroke-width:1px;stroke-linecap:butt;stroke-linejoin:miter;stroke-opacity:1"
       d="M 451.63657,229.95583 L 454.49216,231.6627 L 459.82259,231.6627 L 460.77445,232.85752 L 461.72631,233.88164 L 462.10706,235.7592 L 462.29743,237.97813 L 459.63222,240.02638 L 459.44185,241.73325 L 458.87073,243.09875 L 458.29961,245.48837 L 458.10924,248.39005 L 458.29961,251.80379 L 460.20334,253.85204 L 463.43967,255.90029 L 462.67818,257.77785 L 461.72631,260.16747 L 461.91669,261.70366 L 463.82041,263.92259 L 464.58191,264.09327 L 465.53377,264.43465 L 464.58191,268.53114 L 462.29743,272.28626 L 463.43967,274.33451 L 463.43967,276.04138 L 462.10706,279.62581 L 462.67818,282.3568 L 462.10706,283.21024 L 463.43967,285.77055 L 463.05892,287.30674 L 463.82041,289.35498 L 463.43967,291.7446 L 460.96482,293.1101 L 459.44185,300.27896 L 460.58408,302.83927 L 460.01296,304.71683 L 456.967,307.44783 C 456.967,307.44783 458.10924,308.64263 456.967,308.81332 C 455.82477,308.98401 452.96918,309.83744 452.96918,309.83744 L 450.68471,309.83744 L 448.78098,309.66676 L 446.30615,310.3495 L 444.02167,312.22706 L 442.30832,314.27531 L 440.59497,316.49425 L 440.59497,319.22524 L 440.02385,321.61486 L 442.87944,323.32173 L 445.9254,324.51654 L 446.30615,326.3941 L 445.9254,329.29579 L 442.87944,331.00266 L 441.35645,331.17335 L 438.12013,334.24571 L 435.26453,334.92847 L 433.55118,335.95258 L 433.55118,338.00083 L 430.12448,338.85427 L 427.45926,338.85427 L 426.5074,342.26802 L 428.03038,343.97489 L 428.03038,345.34038 L 430.31485,346.53519 L 429.36299,348.07138 L 429.17261,352.50924 C 429.17261,352.50924 428.22075,354.3868 427.45926,354.3868 C 426.69777,354.3868 424.22293,355.58161 424.22293,355.58161 L 423.27107,359.33673 L 423.46144,361.0436 L 420.60585,364.62803 L 419.27324,366.16422 L 418.13101,367.52972 L 417.36952,371.28484 C 417.36952,371.28484 416.60803,371.7969 415.4658,371.96758 C 414.32356,372.13827 412.61021,371.45553 411.65834,371.11415 C 410.70648,370.77277 407.27978,369.0659 407.27978,369.0659 L 403.28196,370.4314 L 399.09376,371.7969 L 392.62109,370.94346 L 388.24252,371.62621 L 385.95806,373.84514 L 381.76986,377.60026 L 376.24906,380.84332 L 370.72826,377.42957 L 366.34969,377.77095 C 366.34969,377.77095 363.11335,377.77095 362.35186,377.25889 C 361.59037,376.74683 358.92516,375.03996 358.92516,375.03996 L 353.7851,374.86927 C 353.7851,374.86927 352.26212,372.65033 351.31026,372.65033 C 350.35839,372.65033 347.88355,372.65033 347.88355,372.65033 L 346.36057,372.65033 L 343.88573,371.11415 L 344.83759,368.55384 L 346.93169,366.84697 L 341.22051,367.35903 C 341.22051,367.35903 339.88791,367.52972 338.74567,367.8711 C 337.60344,368.21247 336.84195,368.21247 335.69971,368.21247 C 334.55748,368.21247 329.41742,367.8711 328.27518,367.8711 C 327.13295,367.8711 322.37364,367.01766 322.37364,367.01766 L 320.27954,369.91934 C 320.27954,369.91934 315.32985,369.91934 314.56837,369.91934 C 313.80687,369.91934 311.5224,371.96758 311.5224,371.96758 L 312.85501,374.52789 L 309.99942,377.60026 L 309.04756,382.72088 L 305.04974,383.40363 L 299.90968,384.25707 L 297.43483,387.15875 C 297.43483,387.15875 295.34074,389.88974 294.57925,389.71906 C 293.81776,389.54837 288.6777,388.52424 288.6777,388.52424 C 288.6777,388.52424 286.96435,389.03631 285.63174,389.20699 C 284.29913,389.37768 282.58578,390.57249 282.58578,390.57249 L 279.73019,389.54837 L 277.6361,390.06043 L 275.16125,390.23111 L 268.49822,386.81737 L 259.16996,389.37768 L 253.07804,389.71906 L 250.41282,393.47418 L 244.13052,394.66898 L 239.94233,396.54654 C 239.94233,396.54654 236.32525,396.03448 234.99264,395.18105 C 233.66004,394.32761 231.56594,393.47418 231.18519,392.79142 C 230.80444,392.10867 229.85258,390.57249 229.85258,390.57249 L 226.23551,390.4018 L 224.33178,388.18287 L 221.85694,384.08638 L 218.23986,382.37951 L 213.86129,380.84332 L 212.71906,377.25889 C 212.71906,377.25889 210.43459,376.23477 210.43459,375.55202 C 210.43459,374.86927 208.15012,374.52789 208.15012,374.52789 L 205.29453,374.52789 L 196.34702,364.62803 L 196.34702,359.33673 L 193.30106,357.62986 L 191.20696,354.55749 L 191.96846,351.65581 L 197.10851,347.38863 L 198.82187,346.19382 L 199.01224,349.0955 L 199.01224,350.80237 L 201.2967,353.192 L 205.86565,354.89887 L 208.72123,356.94711 L 211.38645,359.84879 L 218.04949,359.84879 L 223.76066,359.84879 L 224.9029,359.33673 L 224.9029,356.94711 L 227.94886,355.24024 L 228.13923,356.09368 L 230.61408,357.1178 L 231.56594,358.65399 L 235.18301,358.4833 L 237.27711,358.82467 L 237.46749,361.38498 L 237.27711,363.60391 L 240.32307,364.45735 L 245.08239,365.65216 L 246.41499,365.82285 L 249.46096,364.96941 L 254.0299,366.67628 L 257.07586,367.8711 L 255.74325,364.11598 L 256.31438,362.06773 L 258.40847,360.87292 L 260.69294,360.53155 L 260.50256,358.65399 L 260.69294,356.43505 L 266.78486,344.65763 L 264.11965,343.12145 L 264.31002,341.24389 L 264.31002,340.21977 L 264.31002,337.1474 L 265.26188,331.85609 L 267.73672,330.83197 L 269.83082,331.34403 L 274.20939,333.56296 L 275.92274,333.73365 L 275.16125,331.17335 L 274.7805,329.29579 L 274.97088,328.27166 L 273.82864,326.90616 L 273.82864,324.17517 L 274.59014,320.93211 L 275.73237,319.90799 L 286.01248,313.76325 L 293.24664,312.22706 L 297.81558,312.22706 L 300.48079,312.05638 L 336.27083,304.03408 L 343.88573,301.81515 L 345.78945,299.93759 L 346.93169,297.20659 L 347.88355,295.6704 L 356.64068,288.84292 L 363.68447,277.23619 L 368.06304,274.33451 C 368.06304,274.33451 387.86178,260.50884 387.86178,252.9986 L 388.4329,248.90212 C 388.4329,248.90212 387.86178,247.02456 387.86178,246.17112 C 387.86178,245.31768 388.05216,243.61081 388.05216,243.61081 L 395.09594,243.61081 L 401.37823,244.12287 L 401.75897,246.51249 L 404.23382,248.90212 L 407.0894,254.53479 L 407.0894,257.43647 L 411.08723,257.43647 L 411.46797,259.48472 L 413.3717,261.53297 L 415.65617,263.23984 L 417.75027,265.28809 L 419.84436,265.62946 L 423.84219,264.09327 L 424.98442,261.87434 L 425.17479,258.63128 L 424.98442,255.04685 L 427.45926,252.82792 L 424.4133,250.60899 L 424.60368,247.36593 L 423.65181,241.90394 L 422.12883,240.02638 L 424.98442,237.29538 L 428.6015,235.7592 L 433.55118,234.73507 L 435.07417,234.73507 L 438.12013,237.63676 L 437.16826,239.85569 L 437.35863,243.7815 L 439.26236,249.0728 L 441.92758,251.46242 L 443.8313,252.65723 L 448.78098,253.85204 L 448.20987,250.77967 L 445.73502,246.3418 C 445.73502,246.3418 445.73502,244.46424 445.73502,243.7815 C 445.73502,243.09875 444.40241,239.85569 444.40241,239.85569 L 441.7372,236.10058 L 440.02385,233.71095 L 439.6431,232.00408 L 441.7372,230.12652 L 444.97354,229.44377 L 447.06763,229.78514 L 448.20987,230.80927 L 449.92322,230.63858 L 451.63657,229.95583 z "
       id="SRW" />
    <path
       style="fill:#c8c8c8;fill-opacity:1;fill-rule:evenodd;stroke:none;stroke-width:1px;stroke-linecap:butt;stroke-linejoin:miter;stroke-opacity:1"
       d="M 113.47407,199.6975 L 112.60344,200.75411 L 112.67599,201.67865 L 112.60344,202.60319 L 112.60344,203.6598 L 113.61916,206.5655 L 114.78001,206.89568 L 115.86829,205.97114 L 116.23104,203.99 L 115.94084,202.60319 L 115.36041,201.48054 L 115.28787,200.22581 L 113.47407,199.6975 z "
       id="KUL" />
    <path
       style="fill:#c8c8c8;fill-opacity:1;fill-rule:evenodd;stroke:none;stroke-width:1px;stroke-linecap:butt;stroke-linejoin:miter;stroke-opacity:1"
       d="M 114.85704,210.8135 L 114.85704,212.98061 L 116.55977,213.90937 L 119.03647,212.98061 L 119.03647,212.05185 L 117.33374,210.34911 L 114.85704,210.8135 z "
       id="PJY" />
  </g>
</svg>
